<?xml version="1.0" encoding="utf-8" standalone="no"?>
<!DOCTYPE svg PUBLIC "-//W3C//DTD SVG 1.1//EN"
  "http://www.w3.org/Graphics/SVG/1.1/DTD/svg11.dtd">
<svg xmlns:xlink="http://www.w3.org/1999/xlink" width="526.799354pt" height="353.99952pt" viewBox="0 0 526.799354 353.99952" xmlns="http://www.w3.org/2000/svg" version="1.1">
 <metadata>
  <rdf:RDF xmlns:dc="http://purl.org/dc/elements/1.1/" xmlns:cc="http://creativecommons.org/ns#" xmlns:rdf="http://www.w3.org/1999/02/22-rdf-syntax-ns#">
   <cc:Work>
    <dc:type rdf:resource="http://purl.org/dc/dcmitype/StillImage"/>
    <dc:date>2026-09-11T11:58:14.400744</dc:date>
    <dc:format>image/svg+xml</dc:format>
    <dc:creator>
     <cc:Agent>
      <dc:title>Matplotlib v3.10.8, https://matplotlib.org/</dc:title>
     </cc:Agent>
    </dc:creator>
   </cc:Work>
  </rdf:RDF>
 </metadata>
 <defs>
  <style type="text/css">*{stroke-linejoin: round; stroke-linecap: butt}</style>
 </defs>
 <g id="figure_1">
  <g id="patch_1">
   <path d="M 0 353.99952 
L 526.799354 353.99952 
L 526.799354 0 
L 0 0 
z
" style="fill: #ffffff"/>
  </g>
  <g id="axes_1">
   <g id="patch_2">
    <path d="M 54.448438 173.348541 
L 281.661784 173.348541 
L 281.661784 42.45723 
L 54.448438 42.45723 
z
" style="fill: #ffffff"/>
   </g>
   <g id="matplotlib.axis_1">
    <g id="xtick_1">
     <g id="line2d_1">
      <path d="M 101.373607 173.348541 
L 101.373607 42.45723 
" clip-path="url(#p4582e38800)" style="fill: none; stroke: #b0b0b0; stroke-opacity: 0.13; stroke-width: 0.8; stroke-linecap: square"/>
     </g>
     <g id="line2d_2">
      <defs>
       <path id="md37ba72066" d="M 0 0 
L 0 3.5 
" style="stroke: #000000; stroke-width: 0.8"/>
      </defs>
      <g>
       <use xlink:href="#md37ba72066" x="101.373607" y="173.348541" style="stroke: #000000; stroke-width: 0.8"/>
      </g>
     </g>
    </g>
    <g id="xtick_2">
     <g id="line2d_3">
      <path d="M 157.820275 173.348541 
L 157.820275 42.45723 
" clip-path="url(#p4582e38800)" style="fill: none; stroke: #b0b0b0; stroke-opacity: 0.13; stroke-width: 0.8; stroke-linecap: square"/>
     </g>
     <g id="line2d_4">
      <g>
       <use xlink:href="#md37ba72066" x="157.820275" y="173.348541" style="stroke: #000000; stroke-width: 0.8"/>
      </g>
     </g>
    </g>
    <g id="xtick_3">
     <g id="line2d_5">
      <path d="M 214.887236 173.348541 
L 214.887236 42.45723 
" clip-path="url(#p4582e38800)" style="fill: none; stroke: #b0b0b0; stroke-opacity: 0.13; stroke-width: 0.8; stroke-linecap: square"/>
     </g>
     <g id="line2d_6">
      <g>
       <use xlink:href="#md37ba72066" x="214.887236" y="173.348541" style="stroke: #000000; stroke-width: 0.8"/>
      </g>
     </g>
    </g>
    <g id="xtick_4">
     <g id="line2d_7">
      <path d="M 271.954197 173.348541 
L 271.954197 42.45723 
" clip-path="url(#p4582e38800)" style="fill: none; stroke: #b0b0b0; stroke-opacity: 0.13; stroke-width: 0.8; stroke-linecap: square"/>
     </g>
     <g id="line2d_8">
      <g>
       <use xlink:href="#md37ba72066" x="271.954197" y="173.348541" style="stroke: #000000; stroke-width: 0.8"/>
      </g>
     </g>
    </g>
   </g>
   <g id="matplotlib.axis_2">
    <g id="ytick_1">
     <g id="line2d_9">
      <path d="M 54.448438 152.816571 
L 281.661784 152.816571 
" clip-path="url(#p4582e38800)" style="fill: none; stroke: #b0b0b0; stroke-opacity: 0.13; stroke-width: 0.8; stroke-linecap: square"/>
     </g>
     <g id="line2d_10">
      <defs>
       <path id="m7f76123e07" d="M 0 0 
L -3.5 0 
" style="stroke: #000000; stroke-width: 0.8"/>
      </defs>
      <g>
       <use xlink:href="#m7f76123e07" x="54.448438" y="152.816571" style="stroke: #000000; stroke-width: 0.8"/>
      </g>
     </g>
     <g id="text_1">
      <text style="font-size: 11px; font-family: 'Songti SC'; text-anchor: end" x="47.448438" y="156.776571" transform="rotate(-0 47.448438 156.776571)">2500</text>
     </g>
    </g>
    <g id="ytick_2">
     <g id="line2d_11">
      <path d="M 54.448438 120.735367 
L 281.661784 120.735367 
" clip-path="url(#p4582e38800)" style="fill: none; stroke: #b0b0b0; stroke-opacity: 0.13; stroke-width: 0.8; stroke-linecap: square"/>
     </g>
     <g id="line2d_12">
      <g>
       <use xlink:href="#m7f76123e07" x="54.448438" y="120.735367" style="stroke: #000000; stroke-width: 0.8"/>
      </g>
     </g>
     <g id="text_2">
      <text style="font-size: 11px; font-family: 'Songti SC'; text-anchor: end" x="47.448438" y="124.695367" transform="rotate(-0 47.448438 124.695367)">5000</text>
     </g>
    </g>
    <g id="ytick_3">
     <g id="line2d_13">
      <path d="M 54.448438 88.654163 
L 281.661784 88.654163 
" clip-path="url(#p4582e38800)" style="fill: none; stroke: #b0b0b0; stroke-opacity: 0.13; stroke-width: 0.8; stroke-linecap: square"/>
     </g>
     <g id="line2d_14">
      <g>
       <use xlink:href="#m7f76123e07" x="54.448438" y="88.654163" style="stroke: #000000; stroke-width: 0.8"/>
      </g>
     </g>
     <g id="text_3">
      <text style="font-size: 11px; font-family: 'Songti SC'; text-anchor: end" x="47.448438" y="92.614163" transform="rotate(-0 47.448438 92.614163)">7500</text>
     </g>
    </g>
    <g id="ytick_4">
     <g id="line2d_15">
      <path d="M 54.448438 56.57296 
L 281.661784 56.57296 
" clip-path="url(#p4582e38800)" style="fill: none; stroke: #b0b0b0; stroke-opacity: 0.13; stroke-width: 0.8; stroke-linecap: square"/>
     </g>
     <g id="line2d_16">
      <g>
       <use xlink:href="#m7f76123e07" x="54.448438" y="56.57296" style="stroke: #000000; stroke-width: 0.8"/>
      </g>
     </g>
     <g id="text_4">
      <text style="font-size: 11px; font-family: 'Songti SC'; text-anchor: end" x="47.448438" y="60.53296" transform="rotate(-0 47.448438 60.53296)">10000</text>
     </g>
    </g>
    <g id="text_5">
     <text style="font-size: 11px; font-family: 'Songti SC'; text-anchor: middle" x="16.120313" y="107.902886" transform="rotate(-90 16.120313 107.902886)">午夜储电量 / kWh</text>
    </g>
   </g>
   <g id="line2d_17">
    <path d="M 64.776317 69.806958 
L 65.39661 71.683721 
L 66.016903 75.129806 
L 66.637196 76.392753 
L 67.257489 79.054765 
L 67.877782 73.693493 
L 68.498075 80.852567 
L 69.118368 76.856942 
L 69.738661 84.984575 
L 70.358954 84.642924 
L 70.979247 81.883353 
L 71.59954 80.246422 
L 72.219834 81.626617 
L 72.840127 88.662155 
L 73.46042 84.181993 
L 74.080713 83.420163 
L 75.321299 78.255495 
L 76.561885 94.270907 
L 77.182178 96.994963 
L 77.802471 77.07206 
L 78.422764 81.947183 
L 79.043057 78.624942 
L 79.66335 81.540498 
L 80.283643 73.289502 
L 80.903936 101.480708 
L 81.524229 105.086302 
L 82.144522 81.221843 
L 82.764815 82.970045 
L 83.385109 83.332152 
L 84.005402 81.014548 
L 84.625695 82.006173 
L 85.245988 109.420343 
L 85.866281 120.030139 
L 86.486574 75.077722 
L 87.106867 82.006046 
L 87.72716 78.919489 
L 88.347453 78.709989 
L 88.967746 83.698136 
L 89.588039 128.42798 
L 90.208332 124.955093 
L 90.828625 84.663016 
L 91.448918 76.673869 
L 92.069211 73.853731 
L 92.689504 82.906576 
L 93.309797 76.33754 
L 93.93009 127.907029 
L 94.550384 132.575726 
L 95.170677 71.525214 
L 95.79097 80.578235 
L 96.411263 82.883622 
L 97.031556 82.002054 
L 97.651849 81.988539 
L 98.272142 133.9669 
L 98.892435 132.89914 
L 99.512728 81.673316 
L 100.133021 76.231743 
L 100.753314 79.927078 
L 101.373607 77.38659 
L 101.9939 80.546231 
L 102.614193 136.34094 
L 103.234486 131.007448 
L 103.854779 76.752955 
L 104.475072 79.513924 
L 105.095365 78.576054 
L 105.715659 82.547105 
L 106.335952 78.560447 
L 106.956245 140.471812 
L 107.576538 145.493626 
L 108.196831 73.671852 
L 108.817124 77.546477 
L 109.437417 79.545653 
L 110.05771 75.180058 
L 110.678003 77.367278 
L 111.298296 141.581472 
L 111.918589 141.451532 
L 112.538882 74.492636 
L 113.159175 73.855935 
L 113.779468 80.057865 
L 114.399761 78.523902 
L 115.020054 73.255186 
L 115.640347 151.115225 
L 116.26064 155.549027 
L 116.880934 82.427392 
L 117.501227 81.57516 
L 118.12152 78.965015 
L 118.741813 79.328698 
L 119.362106 82.201495 
L 119.982399 168.287157 
L 120.602692 162.293137 
L 121.222985 84.42172 
L 121.843278 89.801396 
L 122.463571 91.73292 
L 123.083864 94.041775 
L 123.704157 87.53824 
L 124.32445 141.780637 
L 124.944743 140.240739 
L 125.565036 73.035871 
L 126.185329 78.079616 
L 126.805622 71.330313 
L 127.425915 70.945339 
L 128.046208 63.040108 
L 128.666502 146.40033 
L 129.286795 135.055401 
L 129.907088 69.790416 
L 130.527381 70.17539 
L 131.767967 84.463221 
L 132.38826 70.945339 
L 133.008553 139.855765 
L 133.628846 152.559921 
L 134.249139 71.333894 
L 134.869432 77.161498 
L 135.489725 72.100262 
L 136.110018 60.551029 
L 136.730311 73.422212 
L 137.350604 157.418616 
L 137.970897 151.020023 
L 138.59119 69.998611 
L 139.211483 94.073647 
L 139.831777 101.656049 
L 140.45207 89.099888 
L 141.072363 87.76452 
L 141.692656 167.602044 
L 142.312949 169.498797 
L 142.933242 91.746687 
L 143.553535 57.856208 
L 144.173828 58.241182 
L 144.794121 74.025134 
L 145.414414 77.281228 
L 146.034707 105.35216 
L 146.655 116.82947 
L 147.275293 49.38677 
L 147.895586 67.865543 
L 148.515879 58.626157 
L 149.136172 65.170722 
L 149.756465 47.846872 
L 150.376758 145.581085 
L 150.997052 141.079569 
L 151.617345 54.006463 
L 152.237638 51.696617 
L 152.857931 74.65104 
L 153.478224 70.17539 
L 154.098517 73.039708 
L 154.71881 118.168343 
L 155.339103 114.783451 
L 155.959396 71.464679 
L 156.579689 72.551322 
L 157.199982 61.85805 
L 157.820275 84.976112 
L 158.440568 86.144579 
L 159.060861 159.92597 
L 159.681154 161.773995 
L 160.301447 88.603209 
L 160.92174 92.092379 
L 161.542033 97.513277 
L 162.162327 46.306974 
L 162.78262 59.78108 
L 163.402913 140.133328 
L 164.023206 139.79949 
L 164.643499 55.161387 
L 165.263792 46.306974 
L 165.884085 48.231847 
L 166.504378 63.65891 
L 167.124671 52.081591 
L 167.744964 104.438116 
L 168.365257 118.68217 
L 168.98555 72.336989 
L 169.605843 68.822088 
L 170.226136 46.306974 
L 170.846429 56.31631 
L 171.466722 72.314021 
L 172.087015 135.285243 
L 172.707308 140.204018 
L 173.327602 60.166054 
L 173.947895 54.776412 
L 174.568188 83.084275 
L 175.188481 68.351286 
L 175.808774 46.306974 
L 176.429067 105.593039 
L 177.04936 112.323078 
L 177.669653 67.322665 
L 178.289946 79.871324 
L 178.910239 73.786086 
L 179.530532 72.100262 
L 180.150825 89.136431 
L 180.771118 150.977877 
L 181.391411 147.212248 
L 182.011704 84.814964 
L 182.631997 69.250954 
L 183.25229 77.236021 
L 183.872583 80.197787 
L 184.492877 73.782086 
L 185.11317 149.911574 
L 185.733463 153.858186 
L 186.353756 77.664244 
L 186.974049 76.210693 
L 187.594342 80.590593 
L 188.214635 80.553617 
L 188.834928 86.061107 
L 189.455221 139.214619 
L 190.075514 145.864082 
L 190.695807 80.523866 
L 191.3161 83.603036 
L 191.936393 78.448273 
L 192.556686 71.887818 
L 193.176979 78.767414 
L 193.797272 140.066423 
L 194.417565 136.817127 
L 195.037858 80.891703 
L 195.658152 70.929064 
L 196.278445 64.785748 
L 197.519031 48.616821 
L 198.139324 97.123601 
L 198.759617 107.132937 
L 199.37991 46.306974 
L 200.000203 47.667726 
L 200.620496 87.128413 
L 201.240789 86.099831 
L 201.861082 74.279908 
L 202.481375 134.740169 
L 203.101668 129.485156 
L 203.721961 79.784564 
L 204.342254 81.906366 
L 204.962547 78.523291 
L 205.58284 77.669332 
L 206.203133 77.974742 
L 206.823427 129.462533 
L 207.44372 130.413424 
L 208.064013 74.638949 
L 208.684306 72.149522 
L 209.304599 82.053436 
L 209.924892 72.382897 
L 210.545185 76.120867 
L 211.165478 118.437586 
L 211.785771 118.791881 
L 212.406064 84.219791 
L 213.026357 74.521276 
L 213.64665 76.076136 
L 214.266943 69.742421 
L 214.887236 49.538121 
L 215.507529 89.554257 
L 216.127822 96.510425 
L 216.748115 63.24585 
L 217.368408 57.471233 
L 217.988702 63.630824 
L 218.608995 65.194918 
L 219.229288 76.025838 
L 219.849581 121.239169 
L 220.469874 114.940914 
L 221.090167 76.303768 
L 221.71046 77.671419 
L 222.330753 74.509226 
L 222.951046 83.287697 
L 223.571339 80.527641 
L 224.191632 118.438141 
L 224.811925 113.675854 
L 225.432218 74.876201 
L 226.052511 78.475832 
L 226.672804 77.853767 
L 227.293097 71.825402 
L 227.91339 76.747729 
L 228.533683 103.958294 
L 229.153976 110.818769 
L 229.77427 80.198838 
L 230.394563 69.41442 
L 231.635149 77.457182 
L 232.255442 78.762275 
L 232.875735 103.40882 
L 233.496028 103.47982 
L 234.116321 68.004791 
L 234.736614 78.950563 
L 235.356907 73.428518 
L 235.9772 79.509777 
L 236.597493 72.782635 
L 237.217786 99.037999 
L 237.838079 95.541225 
L 238.458372 78.237991 
L 239.078665 71.761276 
L 239.698958 79.783658 
L 240.319251 77.173391 
L 240.939545 80.464017 
L 241.559838 81.251687 
L 242.180131 88.56283 
L 242.800424 78.991509 
L 243.420717 81.766291 
L 244.04101 73.112168 
L 244.661303 77.230999 
L 245.281596 78.654165 
L 245.901889 85.481574 
L 246.522182 77.039874 
L 247.142475 76.083224 
L 247.762768 77.106346 
L 248.383061 83.928664 
L 249.003354 81.458048 
L 249.623647 73.23437 
L 250.24394 81.836387 
L 250.864233 82.712199 
L 251.484526 74.015097 
L 252.10482 80.699689 
L 252.725113 76.798397 
L 253.345406 80.301198 
L 254.585992 84.179699 
L 255.206285 78.116571 
L 255.826578 81.414751 
L 256.446871 81.378543 
L 257.687457 73.080142 
L 258.30775 79.987622 
L 258.928043 76.202422 
L 259.548336 76.704761 
L 260.168629 74.413227 
L 260.788922 73.414839 
L 261.409215 78.027814 
L 262.029508 79.425011 
L 262.649801 77.411248 
L 263.270095 76.249871 
L 263.890388 82.632115 
L 264.510681 78.611505 
L 265.130974 75.871621 
L 265.751267 79.789743 
L 266.37156 75.375066 
L 266.991853 79.956352 
L 267.612146 79.446726 
L 268.232439 70.48327 
L 268.852732 73.063372 
L 269.473025 79.344092 
L 270.093318 78.409672 
L 270.713611 79.281723 
L 271.333904 169.498797 
L 271.333904 169.498797 
" clip-path="url(#p4582e38800)" style="fill: none; stroke: #2b718b; stroke-width: 0.9; stroke-linecap: square"/>
   </g>
   <g id="line2d_18">
    <path d="M 54.448438 107.902886 
L 281.661784 107.902886 
" clip-path="url(#p4582e38800)" style="fill: none; stroke-dasharray: 0.8,1.32; stroke-dashoffset: 0; stroke: #999999; stroke-width: 0.8"/>
   </g>
   <g id="patch_3">
    <path d="M 54.448438 173.348541 
L 54.448438 42.45723 
" style="fill: none; stroke: #000000; stroke-width: 0.8; stroke-linejoin: miter; stroke-linecap: square"/>
   </g>
   <g id="patch_4">
    <path d="M 54.448437 173.348541 
L 281.661784 173.348541 
" style="fill: none; stroke: #000000; stroke-width: 0.8; stroke-linejoin: miter; stroke-linecap: square"/>
   </g>
   <g id="text_6">
    <text style="font-size: 13.2px; font-family: 'Songti SC'; text-anchor: middle" x="168.055111" y="36.45723" transform="rotate(-0 168.055111 36.45723)">第二问</text>
   </g>
  </g>
  <g id="axes_2">
   <g id="patch_5">
    <path d="M 291.774219 173.348541 
L 518.987565 173.348541 
L 518.987565 42.45723 
L 291.774219 42.45723 
z
" style="fill: #ffffff"/>
   </g>
   <g id="matplotlib.axis_3">
    <g id="xtick_5">
     <g id="line2d_19">
      <path d="M 338.699388 173.348541 
L 338.699388 42.45723 
" clip-path="url(#pcb56a8c42a)" style="fill: none; stroke: #b0b0b0; stroke-opacity: 0.13; stroke-width: 0.8; stroke-linecap: square"/>
     </g>
     <g id="line2d_20">
      <g>
       <use xlink:href="#md37ba72066" x="338.699388" y="173.348541" style="stroke: #000000; stroke-width: 0.8"/>
      </g>
     </g>
    </g>
    <g id="xtick_6">
     <g id="line2d_21">
      <path d="M 395.146056 173.348541 
L 395.146056 42.45723 
" clip-path="url(#pcb56a8c42a)" style="fill: none; stroke: #b0b0b0; stroke-opacity: 0.13; stroke-width: 0.8; stroke-linecap: square"/>
     </g>
     <g id="line2d_22">
      <g>
       <use xlink:href="#md37ba72066" x="395.146056" y="173.348541" style="stroke: #000000; stroke-width: 0.8"/>
      </g>
     </g>
    </g>
    <g id="xtick_7">
     <g id="line2d_23">
      <path d="M 452.213017 173.348541 
L 452.213017 42.45723 
" clip-path="url(#pcb56a8c42a)" style="fill: none; stroke: #b0b0b0; stroke-opacity: 0.13; stroke-width: 0.8; stroke-linecap: square"/>
     </g>
     <g id="line2d_24">
      <g>
       <use xlink:href="#md37ba72066" x="452.213017" y="173.348541" style="stroke: #000000; stroke-width: 0.8"/>
      </g>
     </g>
    </g>
    <g id="xtick_8">
     <g id="line2d_25">
      <path d="M 509.279979 173.348541 
L 509.279979 42.45723 
" clip-path="url(#pcb56a8c42a)" style="fill: none; stroke: #b0b0b0; stroke-opacity: 0.13; stroke-width: 0.8; stroke-linecap: square"/>
     </g>
     <g id="line2d_26">
      <g>
       <use xlink:href="#md37ba72066" x="509.279979" y="173.348541" style="stroke: #000000; stroke-width: 0.8"/>
      </g>
     </g>
    </g>
   </g>
   <g id="matplotlib.axis_4">
    <g id="ytick_5">
     <g id="line2d_27">
      <path d="M 291.774219 152.816571 
L 518.987565 152.816571 
" clip-path="url(#pcb56a8c42a)" style="fill: none; stroke: #b0b0b0; stroke-opacity: 0.13; stroke-width: 0.8; stroke-linecap: square"/>
     </g>
     <g id="line2d_28">
      <g>
       <use xlink:href="#m7f76123e07" x="291.774219" y="152.816571" style="stroke: #000000; stroke-width: 0.8"/>
      </g>
     </g>
    </g>
    <g id="ytick_6">
     <g id="line2d_29">
      <path d="M 291.774219 120.735367 
L 518.987565 120.735367 
" clip-path="url(#pcb56a8c42a)" style="fill: none; stroke: #b0b0b0; stroke-opacity: 0.13; stroke-width: 0.8; stroke-linecap: square"/>
     </g>
     <g id="line2d_30">
      <g>
       <use xlink:href="#m7f76123e07" x="291.774219" y="120.735367" style="stroke: #000000; stroke-width: 0.8"/>
      </g>
     </g>
    </g>
    <g id="ytick_7">
     <g id="line2d_31">
      <path d="M 291.774219 88.654163 
L 518.987565 88.654163 
" clip-path="url(#pcb56a8c42a)" style="fill: none; stroke: #b0b0b0; stroke-opacity: 0.13; stroke-width: 0.8; stroke-linecap: square"/>
     </g>
     <g id="line2d_32">
      <g>
       <use xlink:href="#m7f76123e07" x="291.774219" y="88.654163" style="stroke: #000000; stroke-width: 0.8"/>
      </g>
     </g>
    </g>
    <g id="ytick_8">
     <g id="line2d_33">
      <path d="M 291.774219 56.57296 
L 518.987565 56.57296 
" clip-path="url(#pcb56a8c42a)" style="fill: none; stroke: #b0b0b0; stroke-opacity: 0.13; stroke-width: 0.8; stroke-linecap: square"/>
     </g>
     <g id="line2d_34">
      <g>
       <use xlink:href="#m7f76123e07" x="291.774219" y="56.57296" style="stroke: #000000; stroke-width: 0.8"/>
      </g>
     </g>
    </g>
   </g>
   <g id="line2d_35">
    <path d="M 302.102098 66.210475 
L 303.342684 78.856724 
L 303.962977 71.714189 
L 304.58327 80.502251 
L 305.203563 73.365973 
L 305.823856 80.617477 
L 306.44415 77.234464 
L 307.064443 75.816069 
L 307.684736 77.536619 
L 308.305029 74.625059 
L 309.545615 84.650329 
L 310.165908 85.933161 
L 310.786201 82.540644 
L 311.406494 81.621323 
L 312.026787 81.843301 
L 312.64708 77.05317 
L 313.887666 94.143341 
L 314.507959 96.018242 
L 315.128252 75.771935 
L 315.748545 82.63363 
L 316.368838 77.757627 
L 316.989131 82.859187 
L 317.609424 73.251542 
L 318.229718 99.983993 
L 318.850011 104.489704 
L 319.470304 81.042131 
L 320.090597 81.297104 
L 320.71089 83.037672 
L 321.331183 81.882163 
L 321.951476 77.494657 
L 322.571769 106.017852 
L 323.192062 118.399149 
L 323.812355 72.488956 
L 324.432648 72.894175 
L 325.052941 73.519824 
L 325.673234 78.462122 
L 326.293527 80.864974 
L 326.91382 128.221356 
L 327.534113 123.022697 
L 328.154406 77.498317 
L 328.774699 68.941167 
L 329.394993 73.087577 
L 330.015286 73.168052 
L 330.635579 68.305675 
L 331.255872 126.857589 
L 331.876165 132.407737 
L 332.496458 64.625885 
L 333.737044 81.607791 
L 334.357337 81.381062 
L 334.97763 74.020151 
L 335.597923 132.319096 
L 336.218216 132.165406 
L 336.838509 74.339234 
L 337.458802 76.437713 
L 338.079095 79.014032 
L 338.699388 74.346748 
L 339.319681 73.360496 
L 339.939974 137.358732 
L 340.560268 132.215193 
L 341.180561 69.288646 
L 341.800854 73.717631 
L 342.421147 82.16375 
L 343.04144 81.951002 
L 343.661733 77.978101 
L 344.282026 141.122811 
L 344.902319 147.528835 
L 345.522612 73.634286 
L 346.142905 70.085461 
L 346.763198 79.066194 
L 347.383491 76.391833 
L 348.003784 76.922312 
L 348.624077 142.299169 
L 349.24437 140.626415 
L 349.864663 77.834548 
L 350.484956 72.468754 
L 351.105249 79.171393 
L 351.725543 72.983596 
L 352.345836 75.908019 
L 352.966129 152.452807 
L 353.586422 155.259969 
L 354.206715 74.067876 
L 354.827008 75.041813 
L 355.447301 79.337341 
L 356.067594 80.263794 
L 356.687887 75.755505 
L 357.30818 168.043714 
L 357.928473 162.079823 
L 358.548766 80.20123 
L 359.169059 90.420364 
L 359.789352 88.449831 
L 360.409645 91.347105 
L 361.029938 87.254002 
L 361.650231 144.095482 
L 362.270524 142.93556 
L 362.890818 73.64819 
L 363.511111 73.797359 
L 364.131404 70.560364 
L 364.751697 71.715288 
L 365.37199 61.320978 
L 365.992283 138.315867 
L 366.612576 147.397432 
L 367.232869 71.330313 
L 367.853162 71.330313 
L 368.473455 77.29653 
L 369.093748 76.845891 
L 369.714041 73.031807 
L 370.334334 143.320535 
L 370.954627 149.095151 
L 371.57492 62.517749 
L 372.195213 73.187744 
L 372.815506 72.100262 
L 373.435799 69.020467 
L 374.056093 69.872037 
L 374.676386 147.975786 
L 375.296679 145.630381 
L 375.916972 70.76856 
L 376.537265 95.196309 
L 377.157558 99.782244 
L 377.777851 90.733737 
L 378.398144 90.909612 
L 379.018437 169.37277 
L 379.63873 167.929866 
L 380.259023 92.482224 
L 380.879316 62.475901 
L 381.499609 67.877333 
L 382.119902 75.8962 
L 382.740195 64.600975 
L 383.360488 119.837093 
L 383.980781 130.10241 
L 384.601074 68.635492 
L 385.221368 66.166338 
L 385.841661 76.334981 
L 386.461954 69.020467 
L 387.082247 69.895531 
L 387.70254 143.351314 
L 388.322833 134.986246 
L 388.943126 63.630824 
L 390.183712 68.726864 
L 390.804005 65.462844 
L 391.424298 63.470539 
L 392.044591 140.625713 
L 392.664884 143.320535 
L 393.285177 68.213173 
L 393.90547 72.619934 
L 394.525763 66.147918 
L 395.146056 99.621226 
L 395.766349 92.864029 
L 396.386643 165.512587 
L 397.006936 169.498797 
L 397.627229 98.599648 
L 398.247522 102.126772 
L 398.867815 98.849719 
L 399.488108 74.000022 
L 400.108401 62.980017 
L 400.728694 136.456694 
L 401.348987 135.363573 
L 401.96928 71.004871 
L 402.589573 74.37867 
L 403.209866 68.616535 
L 403.830159 65.209643 
L 404.450452 71.05946 
L 405.070745 135.336153 
L 405.691038 133.119626 
L 406.311331 60.653146 
L 406.931624 67.303213 
L 407.551918 62.896928 
L 408.172211 70.135399 
L 408.792504 76.031913 
L 409.412797 123.351155 
L 410.03309 136.810592 
L 410.653383 63.076659 
L 411.273676 58.712475 
L 411.893969 68.344455 
L 412.514262 64.470786 
L 413.134555 63.630824 
L 413.754848 136.69866 
L 414.375141 134.622786 
L 414.995434 59.934678 
L 415.615727 76.793957 
L 416.23602 74.335102 
L 416.856313 69.60238 
L 417.476606 86.455885 
L 418.096899 152.665676 
L 418.717192 149.546576 
L 419.337486 81.726543 
L 419.957779 69.562057 
L 420.578072 78.834944 
L 421.198365 79.795357 
L 421.818658 75.303686 
L 422.438951 149.509361 
L 423.059244 153.475777 
L 423.679537 78.19869 
L 424.29983 77.759732 
L 424.920123 76.011199 
L 425.540416 76.012994 
L 426.160709 86.292496 
L 426.781002 140.587729 
L 427.401295 146.407536 
L 428.021588 78.717498 
L 428.641881 71.089894 
L 429.262174 73.987746 
L 429.882467 63.630824 
L 430.502761 81.3299 
L 431.123054 138.805953 
L 431.743347 136.626271 
L 432.36364 79.182779 
L 432.983933 65.153432 
L 433.604226 64.400773 
L 434.844812 58.241182 
L 435.465105 118.68217 
L 436.085398 127.728944 
L 436.705691 57.471233 
L 437.325984 47.462507 
L 437.946277 83.371759 
L 438.56657 74.635504 
L 439.186863 74.829053 
L 439.807156 136.028923 
L 440.427449 133.126784 
L 441.047742 69.770746 
L 442.288329 81.308574 
L 442.908622 81.329206 
L 443.528915 79.403116 
L 444.149208 135.798657 
L 444.769501 129.900408 
L 445.389794 73.422717 
L 446.010087 78.186949 
L 446.63038 73.399749 
L 447.250673 74.824826 
L 447.870966 70.378054 
L 448.491259 122.957345 
L 449.111552 121.481046 
L 449.731845 78.749508 
L 450.352138 77.095989 
L 450.972431 71.44181 
L 451.592724 75.655863 
L 452.213017 68.635492 
L 452.833311 114.447451 
L 453.453604 113.677502 
L 454.073897 69.020467 
L 454.69419 65.170722 
L 455.314483 66.325646 
L 455.934776 70.17539 
L 456.555069 73.17257 
L 457.175362 121.490161 
L 457.795655 112.641213 
L 458.415948 76.859985 
L 459.036241 78.430849 
L 460.276827 80.137178 
L 460.89712 77.627541 
L 461.517413 116.710714 
L 462.137706 114.659038 
L 462.757999 75.639292 
L 463.378292 73.858778 
L 463.998586 79.365563 
L 464.618879 69.121985 
L 465.239172 78.104525 
L 465.859465 105.824485 
L 466.479758 109.239698 
L 467.100051 80.817113 
L 467.720344 70.803675 
L 468.340637 75.28852 
L 468.96093 73.261173 
L 469.581223 74.772564 
L 470.201516 106.638179 
L 470.821809 103.857628 
L 471.442102 66.656642 
L 472.062395 80.095386 
L 472.682688 69.596462 
L 473.302981 79.59829 
L 473.923274 74.284705 
L 474.543567 98.413663 
L 475.163861 93.842981 
L 475.784154 77.789507 
L 476.404447 71.224491 
L 477.02474 80.09493 
L 477.645033 75.471982 
L 478.265326 73.56157 
L 479.505912 87.70216 
L 480.126205 76.594907 
L 480.746498 78.734647 
L 481.366791 73.472352 
L 481.987084 71.321241 
L 482.607377 75.987133 
L 483.22767 83.680659 
L 483.847963 79.178963 
L 484.468256 76.588118 
L 485.088549 77.439133 
L 485.708842 81.972334 
L 486.329136 81.983235 
L 486.949429 73.144959 
L 487.569722 81.237883 
L 488.190015 79.847676 
L 488.810308 72.656484 
L 489.430601 78.120232 
L 490.050894 66.537106 
L 490.671187 79.253258 
L 491.29148 77.886795 
L 491.911773 73.730595 
L 492.532066 73.987276 
L 493.152359 75.476615 
L 493.772652 73.999201 
L 494.392945 71.154419 
L 495.633531 79.457106 
L 496.253824 78.562032 
L 496.874117 69.579446 
L 497.494411 76.65656 
L 498.114704 68.803032 
L 498.734997 78.827373 
L 499.35529 80.618947 
L 499.975583 73.229048 
L 500.595876 73.99761 
L 501.216169 80.705376 
L 501.836462 73.953645 
L 502.456755 81.263254 
L 503.077048 80.531991 
L 503.697341 69.661494 
L 504.317634 80.520329 
L 504.937927 81.420912 
L 505.55822 66.068027 
L 506.178513 68.169609 
L 506.798806 70.738206 
L 507.419099 78.965712 
L 508.039392 80.622725 
L 508.659686 169.498797 
L 508.659686 169.498797 
" clip-path="url(#pcb56a8c42a)" style="fill: none; stroke: #2b718b; stroke-width: 0.9; stroke-linecap: square"/>
   </g>
   <g id="line2d_36">
    <path d="M 291.774219 107.902886 
L 518.987565 107.902886 
" clip-path="url(#pcb56a8c42a)" style="fill: none; stroke-dasharray: 0.8,1.32; stroke-dashoffset: 0; stroke: #999999; stroke-width: 0.8"/>
   </g>
   <g id="patch_6">
    <path d="M 291.774219 173.348541 
L 291.774219 42.45723 
" style="fill: none; stroke: #000000; stroke-width: 0.8; stroke-linejoin: miter; stroke-linecap: square"/>
   </g>
   <g id="patch_7">
    <path d="M 291.774219 173.348541 
L 518.987565 173.348541 
" style="fill: none; stroke: #000000; stroke-width: 0.8; stroke-linejoin: miter; stroke-linecap: square"/>
   </g>
   <g id="text_7">
    <text style="font-size: 13.2px; font-family: 'Songti SC'; text-anchor: middle" x="405.380892" y="36.45723" transform="rotate(-0 405.380892 36.45723)">第三问</text>
   </g>
  </g>
  <g id="axes_3">
   <g id="patch_8">
    <path d="M 54.448438 330.33952 
L 281.661784 330.33952 
L 281.661784 199.448209 
L 54.448438 199.448209 
z
" style="fill: #ffffff"/>
   </g>
   <g id="matplotlib.axis_5">
    <g id="xtick_9">
     <g id="line2d_37">
      <path d="M 101.373607 330.33952 
L 101.373607 199.448209 
" clip-path="url(#pc9df67b880)" style="fill: none; stroke: #b0b0b0; stroke-opacity: 0.13; stroke-width: 0.8; stroke-linecap: square"/>
     </g>
     <g id="line2d_38">
      <g>
       <use xlink:href="#md37ba72066" x="101.373607" y="330.33952" style="stroke: #000000; stroke-width: 0.8"/>
      </g>
     </g>
     <g id="text_8">
      <text style="font-size: 11px; font-family: 'Songti SC'; text-anchor: middle" x="101.373607" y="345.25952" transform="rotate(-0 101.373607 345.25952)">Apr</text>
     </g>
    </g>
    <g id="xtick_10">
     <g id="line2d_39">
      <path d="M 157.820275 330.33952 
L 157.820275 199.448209 
" clip-path="url(#pc9df67b880)" style="fill: none; stroke: #b0b0b0; stroke-opacity: 0.13; stroke-width: 0.8; stroke-linecap: square"/>
     </g>
     <g id="line2d_40">
      <g>
       <use xlink:href="#md37ba72066" x="157.820275" y="330.33952" style="stroke: #000000; stroke-width: 0.8"/>
      </g>
     </g>
     <g id="text_9">
      <text style="font-size: 11px; font-family: 'Songti SC'; text-anchor: middle" x="157.820275" y="345.25952" transform="rotate(-0 157.820275 345.25952)">Jul</text>
     </g>
    </g>
    <g id="xtick_11">
     <g id="line2d_41">
      <path d="M 214.887236 330.33952 
L 214.887236 199.448209 
" clip-path="url(#pc9df67b880)" style="fill: none; stroke: #b0b0b0; stroke-opacity: 0.13; stroke-width: 0.8; stroke-linecap: square"/>
     </g>
     <g id="line2d_42">
      <g>
       <use xlink:href="#md37ba72066" x="214.887236" y="330.33952" style="stroke: #000000; stroke-width: 0.8"/>
      </g>
     </g>
     <g id="text_10">
      <text style="font-size: 11px; font-family: 'Songti SC'; text-anchor: middle" x="214.887236" y="345.25952" transform="rotate(-0 214.887236 345.25952)">Oct</text>
     </g>
    </g>
    <g id="xtick_12">
     <g id="line2d_43">
      <path d="M 271.954197 330.33952 
L 271.954197 199.448209 
" clip-path="url(#pc9df67b880)" style="fill: none; stroke: #b0b0b0; stroke-opacity: 0.13; stroke-width: 0.8; stroke-linecap: square"/>
     </g>
     <g id="line2d_44">
      <g>
       <use xlink:href="#md37ba72066" x="271.954197" y="330.33952" style="stroke: #000000; stroke-width: 0.8"/>
      </g>
     </g>
     <g id="text_11">
      <text style="font-size: 11px; font-family: 'Songti SC'; text-anchor: middle" x="271.954197" y="345.25952" transform="rotate(-0 271.954197 345.25952)">2026</text>
     </g>
    </g>
   </g>
   <g id="matplotlib.axis_6">
    <g id="ytick_9">
     <g id="line2d_45">
      <path d="M 54.448438 309.80755 
L 281.661784 309.80755 
" clip-path="url(#pc9df67b880)" style="fill: none; stroke: #b0b0b0; stroke-opacity: 0.13; stroke-width: 0.8; stroke-linecap: square"/>
     </g>
     <g id="line2d_46">
      <g>
       <use xlink:href="#m7f76123e07" x="54.448438" y="309.80755" style="stroke: #000000; stroke-width: 0.8"/>
      </g>
     </g>
     <g id="text_12">
      <text style="font-size: 11px; font-family: 'Songti SC'; text-anchor: end" x="47.448438" y="313.76755" transform="rotate(-0 47.448438 313.76755)">2500</text>
     </g>
    </g>
    <g id="ytick_10">
     <g id="line2d_47">
      <path d="M 54.448438 277.726346 
L 281.661784 277.726346 
" clip-path="url(#pc9df67b880)" style="fill: none; stroke: #b0b0b0; stroke-opacity: 0.13; stroke-width: 0.8; stroke-linecap: square"/>
     </g>
     <g id="line2d_48">
      <g>
       <use xlink:href="#m7f76123e07" x="54.448438" y="277.726346" style="stroke: #000000; stroke-width: 0.8"/>
      </g>
     </g>
     <g id="text_13">
      <text style="font-size: 11px; font-family: 'Songti SC'; text-anchor: end" x="47.448438" y="281.686346" transform="rotate(-0 47.448438 281.686346)">5000</text>
     </g>
    </g>
    <g id="ytick_11">
     <g id="line2d_49">
      <path d="M 54.448438 245.645142 
L 281.661784 245.645142 
" clip-path="url(#pc9df67b880)" style="fill: none; stroke: #b0b0b0; stroke-opacity: 0.13; stroke-width: 0.8; stroke-linecap: square"/>
     </g>
     <g id="line2d_50">
      <g>
       <use xlink:href="#m7f76123e07" x="54.448438" y="245.645142" style="stroke: #000000; stroke-width: 0.8"/>
      </g>
     </g>
     <g id="text_14">
      <text style="font-size: 11px; font-family: 'Songti SC'; text-anchor: end" x="47.448438" y="249.605142" transform="rotate(-0 47.448438 249.605142)">7500</text>
     </g>
    </g>
    <g id="ytick_12">
     <g id="line2d_51">
      <path d="M 54.448438 213.563938 
L 281.661784 213.563938 
" clip-path="url(#pc9df67b880)" style="fill: none; stroke: #b0b0b0; stroke-opacity: 0.13; stroke-width: 0.8; stroke-linecap: square"/>
     </g>
     <g id="line2d_52">
      <g>
       <use xlink:href="#m7f76123e07" x="54.448438" y="213.563938" style="stroke: #000000; stroke-width: 0.8"/>
      </g>
     </g>
     <g id="text_15">
      <text style="font-size: 11px; font-family: 'Songti SC'; text-anchor: end" x="47.448438" y="217.523938" transform="rotate(-0 47.448438 217.523938)">10000</text>
     </g>
    </g>
    <g id="text_16">
     <text style="font-size: 11px; font-family: 'Songti SC'; text-anchor: middle" x="16.120313" y="264.893864" transform="rotate(-90 16.120313 264.893864)">午夜储电量 / kWh</text>
    </g>
   </g>
   <g id="line2d_53">
    <path d="M 64.776317 210.612468 
L 65.39661 233.435665 
L 66.016903 251.260348 
L 66.637196 264.50889 
L 67.257489 247.994522 
L 67.877782 287.118621 
L 69.118368 210.437605 
L 69.738661 273.271822 
L 70.358954 261.7068 
L 70.979247 268.051059 
L 71.59954 248.752274 
L 72.219834 309.92455 
L 72.840127 276.639701 
L 73.46042 207.923435 
L 74.080713 252.091412 
L 74.701006 259.858672 
L 75.321299 285.409563 
L 75.941592 269.405654 
L 76.561885 312.978189 
L 77.182178 267.04861 
L 77.802471 209.03111 
L 78.422764 259.36202 
L 79.043057 274.366396 
L 79.66335 250.422156 
L 80.283643 251.804733 
L 80.903936 301.841823 
L 81.524229 287.705909 
L 82.144522 213.779088 
L 82.764815 278.661671 
L 84.005402 286.054121 
L 84.625695 238.21969 
L 85.245988 326.297308 
L 86.486574 217.870928 
L 87.106867 265.65505 
L 87.72716 245.862698 
L 88.347453 274.216523 
L 88.967746 259.693048 
L 89.588039 318.882163 
L 90.208332 274.929715 
L 90.828625 216.513035 
L 92.069211 295.458389 
L 92.689504 268.81607 
L 93.309797 269.598867 
L 93.93009 319.911081 
L 94.550384 283.511186 
L 95.170677 218.696931 
L 95.79097 275.233198 
L 96.411263 266.839256 
L 97.031556 276.567092 
L 97.651849 274.840402 
L 98.272142 312.913155 
L 98.892435 271.242983 
L 99.512728 221.581615 
L 100.133021 284.131094 
L 100.753314 275.84309 
L 101.373607 282.059979 
L 101.9939 272.349173 
L 102.614193 321.668501 
L 103.234486 286.160511 
L 103.854779 213.307289 
L 104.475072 247.877003 
L 105.095365 275.46153 
L 106.335952 237.76811 
L 106.956245 311.123993 
L 107.576538 279.312372 
L 108.196831 209.145477 
L 108.817124 266.301649 
L 109.437417 285.677567 
L 110.05771 262.584018 
L 110.678003 283.49927 
L 111.298296 310.970963 
L 111.918589 290.739967 
L 112.538882 215.557523 
L 113.159175 264.033279 
L 113.779468 275.571474 
L 114.399761 247.276257 
L 115.020054 252.574682 
L 115.640347 319.460888 
L 116.26064 256.129013 
L 116.880934 224.297228 
L 117.501227 286.810253 
L 118.12152 253.046516 
L 118.741813 281.550283 
L 119.362106 250.705004 
L 119.982399 309.214225 
L 120.602692 286.835983 
L 121.222985 225.00044 
L 121.843278 259.630891 
L 122.463571 303.966485 
L 123.083864 296.722329 
L 123.704157 275.596431 
L 124.32445 302.709096 
L 124.944743 295.306846 
L 125.565036 213.692263 
L 126.185329 294.384508 
L 126.805622 266.818737 
L 127.425915 273.363302 
L 128.046208 246.800065 
L 128.666502 305.758926 
L 129.286795 281.831596 
L 129.907088 212.152365 
L 130.527381 289.532229 
L 131.147674 296.729598 
L 131.767967 289.970034 
L 132.38826 284.645379 
L 133.008553 304.161258 
L 133.628846 309.935874 
L 134.249139 210.612468 
L 134.869432 303.453545 
L 135.489725 274.133251 
L 136.110018 285.682484 
L 136.730311 293.508582 
L 137.350604 320.135779 
L 137.970897 287.222382 
L 138.59119 204.683075 
L 139.211483 304.894097 
L 139.831777 308.623953 
L 140.45207 294.339664 
L 141.072363 292.248812 
L 141.692656 326.489776 
L 142.312949 326.489776 
L 142.933242 232.767209 
L 143.553535 289.917203 
L 144.173828 266.87681 
L 144.794121 299.451469 
L 145.414414 321.24226 
L 146.034707 272.978328 
L 146.655 267.222248 
L 147.275293 224.471548 
L 147.895586 299.15659 
L 148.515879 275.288174 
L 149.136172 271.823404 
L 149.756465 266.048788 
L 150.376758 309.451852 
L 150.997052 300.778839 
L 151.617345 221.776727 
L 152.237638 278.752944 
L 152.857931 284.599299 
L 153.478224 299.15659 
L 154.098517 303.577599 
L 154.71881 280.85299 
L 155.339103 277.38818 
L 155.959396 221.109974 
L 156.579689 302.285778 
L 157.199982 295.076939 
L 157.820275 320.4606 
L 158.440568 311.395803 
L 159.060861 325.929549 
L 159.681154 309.835382 
L 160.301447 244.550874 
L 160.92174 309.39264 
L 161.542033 265.676811 
L 162.162327 244.354482 
L 162.78262 283.757612 
L 163.402913 312.262799 
L 164.023206 270.889175 
L 164.643499 203.297953 
L 165.263792 265.106034 
L 165.884085 274.9032 
L 166.504378 293.681197 
L 167.124671 262.199043 
L 167.744964 282.217714 
L 168.365257 286.452433 
L 168.98555 275.314944 
L 169.605843 276.910348 
L 170.226136 265.663813 
L 170.846429 268.743609 
L 171.466722 312.438109 
L 172.087015 304.340431 
L 172.707308 301.365225 
L 173.327602 205.753605 
L 173.947895 280.292842 
L 174.568188 319.295708 
L 175.188481 308.150766 
L 175.808774 245.645142 
L 176.429067 277.598021 
L 177.04936 281.274448 
L 177.669653 243.868541 
L 178.289946 312.976983 
L 178.910239 307.975647 
L 179.530532 292.362789 
L 180.150825 324.375824 
L 180.771118 321.562652 
L 181.391411 300.282533 
L 182.011704 247.414714 
L 182.631997 295.453528 
L 183.25229 311.319752 
L 183.872583 320.721552 
L 184.492877 298.402563 
L 185.11317 320.15236 
L 185.733463 321.655299 
L 186.353756 256.50072 
L 186.974049 318.806006 
L 187.594342 307.356085 
L 188.214635 299.761334 
L 188.834928 304.457493 
L 189.455221 320.314923 
L 190.075514 322.443841 
L 190.695807 239.645224 
L 191.3161 275.654569 
L 191.936393 294.756088 
L 192.556686 309.935874 
L 193.176979 317.942851 
L 193.797272 319.463845 
L 194.417565 296.767568 
L 195.037858 226.783902 
L 195.658152 297.060942 
L 196.278445 288.377306 
L 196.898738 283.372638 
L 197.519031 280.677817 
L 198.139324 284.527561 
L 198.759617 278.752944 
L 199.37991 229.86119 
L 200.000203 285.889617 
L 200.620496 281.592412 
L 201.240789 259.828667 
L 201.861082 311.640703 
L 202.481375 315.555068 
L 203.101668 294.82293 
L 203.721961 217.957577 
L 204.342254 295.202068 
L 204.962547 290.386995 
L 205.58284 289.111616 
L 206.203133 254.998274 
L 206.823427 317.438973 
L 207.44372 305.613592 
L 208.064013 213.307289 
L 208.684306 261.78369 
L 209.304599 300.314925 
L 209.924892 305.436006 
L 210.545185 301.828163 
L 211.165478 313.965069 
L 211.785771 296.652784 
L 212.406064 216.580968 
L 213.026357 270.174312 
L 213.64665 295.648971 
L 214.266943 276.530437 
L 214.887236 250.856072 
L 215.507529 271.284466 
L 216.127822 248.419564 
L 216.748115 213.692263 
L 217.368408 268.358634 
L 217.988702 291.072127 
L 218.608995 271.053455 
L 219.229288 256.228975 
L 219.849581 322.677182 
L 220.469874 279.718924 
L 221.090167 211.240454 
L 221.71046 239.897328 
L 222.330753 242.116084 
L 222.951046 263.791612 
L 223.571339 259.084181 
L 224.191632 323.604279 
L 224.811925 260.599958 
L 225.432218 235.942464 
L 226.052511 268.413872 
L 226.672804 238.957463 
L 227.293097 231.203508 
L 227.91339 245.874811 
L 228.533683 317.379347 
L 229.153976 304.441472 
L 229.77427 213.02898 
L 230.394563 255.862253 
L 231.014856 262.771978 
L 231.635149 266.732103 
L 232.255442 256.854692 
L 232.875735 320.306865 
L 233.496028 230.448416 
L 234.116321 210.997442 
L 234.736614 270.834264 
L 235.356907 259.564095 
L 235.9772 286.848879 
L 236.597493 235.576444 
L 237.217786 320.550245 
L 237.838079 286.899018 
L 238.458372 210.840015 
L 239.078665 253.480429 
L 239.698958 278.272837 
L 240.319251 290.662424 
L 240.939545 280.607964 
L 241.559838 316.098949 
L 242.800424 230.948432 
L 243.420717 267.091272 
L 244.04101 246.178238 
L 244.661303 251.194648 
L 245.281596 231.152087 
L 245.901889 322.979849 
L 246.522182 246.770655 
L 247.142475 209.876429 
L 247.762768 254.94873 
L 248.383061 288.518869 
L 249.003354 275.708279 
L 249.623647 287.834499 
L 250.24394 316.573381 
L 250.864233 284.836029 
L 251.484526 221.062116 
L 252.10482 269.80199 
L 252.725113 267.18761 
L 253.345406 278.510811 
L 253.965699 269.492576 
L 254.585992 317.393724 
L 255.206285 276.645273 
L 255.826578 221.667265 
L 256.446871 223.078498 
L 257.687457 269.34547 
L 258.30775 247.699471 
L 258.928043 312.662868 
L 259.548336 234.438719 
L 260.168629 212.922314 
L 260.788922 262.449143 
L 262.029508 229.649744 
L 262.649801 263.615325 
L 263.270095 310.173206 
L 263.890388 245.591346 
L 264.510681 211.382417 
L 265.130974 247.216076 
L 265.751267 257.486751 
L 266.37156 234.64995 
L 266.991853 220.844304 
L 267.612146 321.193131 
L 268.232439 242.950321 
L 268.852732 210.612468 
L 269.473025 246.230143 
L 270.093318 236.405755 
L 270.713611 257.265722 
L 271.333904 326.489776 
L 271.333904 326.489776 
" clip-path="url(#pc9df67b880)" style="fill: none; stroke: #2b718b; stroke-width: 0.9; stroke-linecap: square"/>
   </g>
   <g id="line2d_54">
    <path d="M 54.448438 264.893864 
L 281.661784 264.893864 
" clip-path="url(#pc9df67b880)" style="fill: none; stroke-dasharray: 0.8,1.32; stroke-dashoffset: 0; stroke: #999999; stroke-width: 0.8"/>
   </g>
   <g id="patch_9">
    <path d="M 54.448438 330.33952 
L 54.448438 199.448209 
" style="fill: none; stroke: #000000; stroke-width: 0.8; stroke-linejoin: miter; stroke-linecap: square"/>
   </g>
   <g id="patch_10">
    <path d="M 54.448437 330.33952 
L 281.661784 330.33952 
" style="fill: none; stroke: #000000; stroke-width: 0.8; stroke-linejoin: miter; stroke-linecap: square"/>
   </g>
   <g id="text_17">
    <text style="font-size: 13.2px; font-family: 'Songti SC'; text-anchor: middle" x="168.055111" y="193.448209" transform="rotate(-0 168.055111 193.448209)">第四问·2</text>
   </g>
  </g>
  <g id="axes_4">
   <g id="patch_11">
    <path d="M 291.774219 330.33952 
L 518.987565 330.33952 
L 518.987565 199.448209 
L 291.774219 199.448209 
z
" style="fill: #ffffff"/>
   </g>
   <g id="matplotlib.axis_7">
    <g id="xtick_13">
     <g id="line2d_55">
      <path d="M 338.699388 330.33952 
L 338.699388 199.448209 
" clip-path="url(#p509a1c8f9d)" style="fill: none; stroke: #b0b0b0; stroke-opacity: 0.13; stroke-width: 0.8; stroke-linecap: square"/>
     </g>
     <g id="line2d_56">
      <g>
       <use xlink:href="#md37ba72066" x="338.699388" y="330.33952" style="stroke: #000000; stroke-width: 0.8"/>
      </g>
     </g>
     <g id="text_18">
      <text style="font-size: 11px; font-family: 'Songti SC'; text-anchor: middle" x="338.699388" y="345.25952" transform="rotate(-0 338.699388 345.25952)">Apr</text>
     </g>
    </g>
    <g id="xtick_14">
     <g id="line2d_57">
      <path d="M 395.146056 330.33952 
L 395.146056 199.448209 
" clip-path="url(#p509a1c8f9d)" style="fill: none; stroke: #b0b0b0; stroke-opacity: 0.13; stroke-width: 0.8; stroke-linecap: square"/>
     </g>
     <g id="line2d_58">
      <g>
       <use xlink:href="#md37ba72066" x="395.146056" y="330.33952" style="stroke: #000000; stroke-width: 0.8"/>
      </g>
     </g>
     <g id="text_19">
      <text style="font-size: 11px; font-family: 'Songti SC'; text-anchor: middle" x="395.146056" y="345.25952" transform="rotate(-0 395.146056 345.25952)">Jul</text>
     </g>
    </g>
    <g id="xtick_15">
     <g id="line2d_59">
      <path d="M 452.213017 330.33952 
L 452.213017 199.448209 
" clip-path="url(#p509a1c8f9d)" style="fill: none; stroke: #b0b0b0; stroke-opacity: 0.13; stroke-width: 0.8; stroke-linecap: square"/>
     </g>
     <g id="line2d_60">
      <g>
       <use xlink:href="#md37ba72066" x="452.213017" y="330.33952" style="stroke: #000000; stroke-width: 0.8"/>
      </g>
     </g>
     <g id="text_20">
      <text style="font-size: 11px; font-family: 'Songti SC'; text-anchor: middle" x="452.213017" y="345.25952" transform="rotate(-0 452.213017 345.25952)">Oct</text>
     </g>
    </g>
    <g id="xtick_16">
     <g id="line2d_61">
      <path d="M 509.279979 330.33952 
L 509.279979 199.448209 
" clip-path="url(#p509a1c8f9d)" style="fill: none; stroke: #b0b0b0; stroke-opacity: 0.13; stroke-width: 0.8; stroke-linecap: square"/>
     </g>
     <g id="line2d_62">
      <g>
       <use xlink:href="#md37ba72066" x="509.279979" y="330.33952" style="stroke: #000000; stroke-width: 0.8"/>
      </g>
     </g>
     <g id="text_21">
      <text style="font-size: 11px; font-family: 'Songti SC'; text-anchor: middle" x="509.279979" y="345.25952" transform="rotate(-0 509.279979 345.25952)">2026</text>
     </g>
    </g>
   </g>
   <g id="matplotlib.axis_8">
    <g id="ytick_13">
     <g id="line2d_63">
      <path d="M 291.774219 309.80755 
L 518.987565 309.80755 
" clip-path="url(#p509a1c8f9d)" style="fill: none; stroke: #b0b0b0; stroke-opacity: 0.13; stroke-width: 0.8; stroke-linecap: square"/>
     </g>
     <g id="line2d_64">
      <g>
       <use xlink:href="#m7f76123e07" x="291.774219" y="309.80755" style="stroke: #000000; stroke-width: 0.8"/>
      </g>
     </g>
    </g>
    <g id="ytick_14">
     <g id="line2d_65">
      <path d="M 291.774219 277.726346 
L 518.987565 277.726346 
" clip-path="url(#p509a1c8f9d)" style="fill: none; stroke: #b0b0b0; stroke-opacity: 0.13; stroke-width: 0.8; stroke-linecap: square"/>
     </g>
     <g id="line2d_66">
      <g>
       <use xlink:href="#m7f76123e07" x="291.774219" y="277.726346" style="stroke: #000000; stroke-width: 0.8"/>
      </g>
     </g>
    </g>
    <g id="ytick_15">
     <g id="line2d_67">
      <path d="M 291.774219 245.645142 
L 518.987565 245.645142 
" clip-path="url(#p509a1c8f9d)" style="fill: none; stroke: #b0b0b0; stroke-opacity: 0.13; stroke-width: 0.8; stroke-linecap: square"/>
     </g>
     <g id="line2d_68">
      <g>
       <use xlink:href="#m7f76123e07" x="291.774219" y="245.645142" style="stroke: #000000; stroke-width: 0.8"/>
      </g>
     </g>
    </g>
    <g id="ytick_16">
     <g id="line2d_69">
      <path d="M 291.774219 213.563938 
L 518.987565 213.563938 
" clip-path="url(#p509a1c8f9d)" style="fill: none; stroke: #b0b0b0; stroke-opacity: 0.13; stroke-width: 0.8; stroke-linecap: square"/>
     </g>
     <g id="line2d_70">
      <g>
       <use xlink:href="#m7f76123e07" x="291.774219" y="213.563938" style="stroke: #000000; stroke-width: 0.8"/>
      </g>
     </g>
    </g>
   </g>
   <g id="line2d_71">
    <path d="M 302.102098 209.457544 
L 302.722391 239.164059 
L 303.342684 255.73853 
L 303.962977 264.455572 
L 304.58327 248.626005 
L 305.203563 287.254058 
L 306.44415 209.821321 
L 307.064443 269.049724 
L 307.684736 263.333604 
L 308.305029 268.764677 
L 308.925322 247.669783 
L 309.545615 315.10236 
L 310.165908 274.44408 
L 310.786201 206.644739 
L 311.406494 250.654483 
L 312.026787 261.783332 
L 312.64708 283.296624 
L 313.267373 268.26359 
L 313.887666 313.498329 
L 314.507959 265.720047 
L 315.128252 208.837607 
L 315.748545 259.68493 
L 316.368838 272.91481 
L 316.989131 251.406929 
L 317.609424 250.64981 
L 318.229718 301.002413 
L 318.850011 286.949315 
L 319.470304 212.18709 
L 320.090597 276.148805 
L 320.71089 281.006595 
L 321.331183 286.810681 
L 321.951476 243.061752 
L 322.571769 322.492939 
L 323.812355 217.926982 
L 324.432648 266.20856 
L 325.052941 245.942266 
L 325.673234 273.011669 
L 326.293527 255.972109 
L 326.91382 318.680833 
L 327.534113 273.694625 
L 328.154406 216.294498 
L 329.394993 293.766948 
L 330.015286 267.033897 
L 330.635579 269.498068 
L 331.255872 317.908808 
L 331.876165 283.014541 
L 332.496458 217.542008 
L 333.116751 275.893378 
L 333.737044 266.541979 
L 334.357337 276.674388 
L 334.97763 274.339477 
L 335.597923 311.645664 
L 336.218216 273.704273 
L 336.838509 221.940115 
L 337.458802 284.63284 
L 338.079095 276.329283 
L 338.699388 279.672649 
L 339.319681 272.881187 
L 339.939974 322.577698 
L 340.560268 286.248506 
L 341.180561 210.227493 
L 341.800854 249.19121 
L 342.421147 277.815432 
L 343.04144 253.383026 
L 343.661733 237.907215 
L 344.282026 312.003535 
L 344.902319 281.484934 
L 345.522612 209.319142 
L 346.142905 263.966543 
L 346.763198 283.364857 
L 347.383491 265.291857 
L 348.003784 284.91179 
L 348.624077 311.796629 
L 349.24437 292.854397 
L 349.864663 218.629302 
L 350.484956 267.006508 
L 351.105249 274.570664 
L 351.725543 248.049245 
L 352.345836 254.851254 
L 352.966129 321.396256 
L 353.586422 256.381874 
L 354.206715 220.455153 
L 354.827008 285.867931 
L 355.447301 253.552702 
L 356.067594 282.458441 
L 356.687887 251.222687 
L 357.30818 309.138626 
L 357.928473 286.794977 
L 358.548766 228.536253 
L 359.169059 260.691609 
L 359.789352 301.701469 
L 360.409645 293.899634 
L 361.029938 274.222621 
L 361.650231 302.413137 
L 362.270524 300.311513 
L 362.890818 213.084385 
L 363.511111 287.750717 
L 364.131404 264.893864 
L 364.751697 273.363302 
L 365.37199 256.039452 
L 365.992283 303.391309 
L 366.612576 293.027122 
L 367.232869 212.152365 
L 367.853162 292.22705 
L 368.473455 293.13502 
L 369.093748 281.041174 
L 369.714041 286.067459 
L 370.334334 308.780951 
L 370.954627 308.011002 
L 371.57492 210.658278 
L 372.195213 300.329887 
L 372.815506 272.978328 
L 373.435799 299.926539 
L 374.056093 290.760542 
L 374.676386 312.133546 
L 375.296679 285.29751 
L 375.916972 204.672998 
L 376.537265 304.596707 
L 377.157558 304.592124 
L 377.777851 294.205762 
L 378.398144 295.128572 
L 379.018437 326.489776 
L 379.63873 326.489776 
L 380.259023 235.491832 
L 380.879316 309.165926 
L 381.499609 287.720621 
L 382.119902 300.584801 
L 382.740195 308.780951 
L 383.360488 293.766948 
L 383.980781 286.161549 
L 384.601074 245.645142 
L 385.221368 294.239729 
L 385.841661 295.69182 
L 386.461954 280.677817 
L 387.082247 297.924783 
L 387.70254 305.889917 
L 388.322833 292.612024 
L 388.943126 242.950321 
L 389.563419 304.161258 
L 390.183712 287.977526 
L 390.804005 291.457101 
L 391.424298 296.988484 
L 392.044591 306.471104 
L 392.664884 306.08613 
L 393.285177 225.040628 
L 393.90547 301.470138 
L 394.525763 307.701504 
L 395.146056 326.489776 
L 395.766349 322.432895 
L 396.386643 326.489776 
L 397.006936 319.890611 
L 397.627229 253.181903 
L 398.247522 312.101904 
L 398.867815 267.122295 
L 399.488108 274.015151 
L 400.108401 302.695168 
L 400.728694 309.818909 
L 401.348987 273.196141 
L 401.96928 222.50821 
L 402.589573 295.741322 
L 403.209866 293.479585 
L 403.830159 292.900435 
L 404.450452 289.318539 
L 405.070745 301.92161 
L 405.691038 302.790574 
L 406.311331 270.365653 
L 406.931624 272.977388 
L 407.551918 290.130489 
L 408.172211 291.727927 
L 408.792504 312.140241 
L 409.412797 294.096664 
L 410.03309 310.502791 
L 410.653383 225.627647 
L 411.273676 298.908715 
L 411.893969 304.195954 
L 412.514262 305.924263 
L 413.134555 273.691706 
L 413.754848 304.008951 
L 414.375141 297.203118 
L 414.995434 244.70699 
L 415.615727 307.019492 
L 416.23602 307.540939 
L 416.856313 290.676158 
L 417.476606 321.735794 
L 418.096899 322.695382 
L 418.717192 303.279064 
L 419.337486 243.929055 
L 419.957779 292.966474 
L 420.578072 312.773447 
L 421.198365 319.98843 
L 421.818658 297.418371 
L 422.438951 317.679624 
L 423.059244 322.531234 
L 423.679537 257.875687 
L 424.29983 320.310223 
L 424.920123 300.945603 
L 425.540416 303.273307 
L 426.160709 306.759446 
L 426.781002 321.869043 
L 427.401295 322.413621 
L 428.021588 237.725153 
L 428.641881 270.91147 
L 429.262174 293.467317 
L 429.882467 305.316181 
L 430.502761 320.733131 
L 431.123054 317.784273 
L 431.743347 297.237798 
L 432.36364 222.618664 
L 432.983933 294.315726 
L 433.604226 289.917203 
L 434.224519 294.151922 
L 434.844812 291.842076 
L 435.465105 303.391309 
L 436.085398 294.536897 
L 436.705691 249.879861 
L 437.325984 294.536897 
L 438.56657 255.062693 
L 439.186863 311.609626 
L 439.807156 317.065754 
L 440.427449 295.767309 
L 441.047742 216.251334 
L 441.668036 295.77469 
L 442.288329 292.357916 
L 442.908622 296.093082 
L 443.528915 257.382665 
L 444.149208 322.471218 
L 444.769501 305.430875 
L 445.389794 212.152365 
L 446.010087 268.160958 
L 446.63038 298.672033 
L 447.250673 308.400609 
L 447.870966 305.605439 
L 448.491259 316.548675 
L 449.111552 299.515719 
L 449.731845 218.135934 
L 450.352138 271.71469 
L 450.972431 299.991567 
L 451.592724 282.789302 
L 452.213017 278.36797 
L 452.833311 304.161258 
L 453.453604 266.433762 
L 454.073897 220.236829 
L 454.69419 280.677817 
L 455.314483 294.536897 
L 456.555069 257.779555 
L 457.175362 324.199464 
L 457.795655 276.699241 
L 458.415948 212.734266 
L 459.036241 241.733122 
L 459.656534 247.916235 
L 460.276827 260.760087 
L 460.89712 256.065 
L 461.517413 321.660914 
L 462.137706 263.785529 
L 462.757999 236.994815 
L 463.378292 263.41799 
L 463.998586 240.220519 
L 464.618879 233.840492 
L 465.239172 248.123918 
L 465.859465 316.975356 
L 466.479758 302.722286 
L 467.100051 213.400412 
L 467.720344 258.131964 
L 468.340637 263.031526 
L 468.96093 264.813127 
L 469.581223 253.43675 
L 470.201516 325.254818 
L 470.821809 234.021962 
L 471.442102 210.227493 
L 472.062395 272.118037 
L 472.682688 262.417353 
L 473.302981 285.7319 
L 473.923274 238.139256 
L 474.543567 321.723585 
L 475.163861 285.007947 
L 475.784154 210.775839 
L 476.404447 249.964649 
L 477.02474 278.690654 
L 477.645033 290.426353 
L 478.265326 283.648709 
L 478.885619 319.982808 
L 480.126205 227.361941 
L 480.746498 266.034512 
L 481.366791 250.488206 
L 481.987084 255.172554 
L 482.607377 230.232953 
L 483.22767 322.224131 
L 483.847963 246.233804 
L 484.468256 208.558948 
L 485.088549 257.078238 
L 485.708842 288.870157 
L 486.329136 278.380361 
L 486.949429 291.196781 
L 487.569722 316.980463 
L 488.190015 284.32764 
L 488.810308 219.665557 
L 489.430601 264.282524 
L 490.050894 263.826026 
L 490.671187 274.500136 
L 491.29148 265.271968 
L 491.911773 311.304282 
L 492.532066 272.360365 
L 493.152359 220.236829 
L 493.772652 220.059673 
L 495.013238 271.151264 
L 495.633531 247.844088 
L 496.253824 311.630084 
L 496.874117 237.646531 
L 497.494411 211.382417 
L 498.114704 262.945501 
L 499.35529 230.734878 
L 499.975583 265.862651 
L 500.595876 310.410004 
L 501.216169 244.14792 
L 501.836462 211.382417 
L 502.456755 249.884837 
L 503.077048 258.961363 
L 503.697341 234.672528 
L 504.317634 221.382158 
L 504.937927 321.234786 
L 505.55822 242.216752 
L 506.178513 210.612468 
L 506.798806 246.415091 
L 507.419099 237.92246 
L 508.039392 259.258168 
L 508.659686 326.489776 
L 508.659686 326.489776 
" clip-path="url(#p509a1c8f9d)" style="fill: none; stroke: #2b718b; stroke-width: 0.9; stroke-linecap: square"/>
   </g>
   <g id="line2d_72">
    <path d="M 291.774219 264.893864 
L 518.987565 264.893864 
" clip-path="url(#p509a1c8f9d)" style="fill: none; stroke-dasharray: 0.8,1.32; stroke-dashoffset: 0; stroke: #999999; stroke-width: 0.8"/>
   </g>
   <g id="patch_12">
    <path d="M 291.774219 330.33952 
L 291.774219 199.448209 
" style="fill: none; stroke: #000000; stroke-width: 0.8; stroke-linejoin: miter; stroke-linecap: square"/>
   </g>
   <g id="patch_13">
    <path d="M 291.774219 330.33952 
L 518.987565 330.33952 
" style="fill: none; stroke: #000000; stroke-width: 0.8; stroke-linejoin: miter; stroke-linecap: square"/>
   </g>
   <g id="text_22">
    <text style="font-size: 13.2px; font-family: 'Songti SC'; text-anchor: middle" x="405.380892" y="193.448209" transform="rotate(-0 405.380892 193.448209)">第四问·3</text>
   </g>
  </g>
  <g id="text_23">
   <text style="font-size: 13.2px; font-family: 'Songti SC'; text-anchor: middle" x="263.39976" y="18.021937" transform="rotate(-0 263.39976 18.021937)">跨日库存连续传递，午夜不再固定为6000 kWh</text>
  </g>
 </g>
 <defs>
  <clipPath id="p4582e38800">
   <rect x="54.448438" y="42.45723" width="227.213346" height="130.891311"/>
  </clipPath>
  <clipPath id="pcb56a8c42a">
   <rect x="291.774219" y="42.45723" width="227.213346" height="130.891311"/>
  </clipPath>
  <clipPath id="pc9df67b880">
   <rect x="54.448438" y="199.448209" width="227.213346" height="130.891311"/>
  </clipPath>
  <clipPath id="p509a1c8f9d">
   <rect x="291.774219" y="199.448209" width="227.213346" height="130.891311"/>
  </clipPath>
 </defs>
</svg>
